<svg width="20" height="18" viewBox="0 0 20 18" fill="none" xmlns="http://www.w3.org/2000/svg">
<path d="M8 4.54297H3C2.46957 4.54297 1.96086 4.73763 1.58579 5.08413C1.21071 5.43064 1 5.9006 1 6.39062V14.7051C1 15.1951 1.21071 15.6651 1.58579 16.0116C1.96086 16.3581 2.46957 16.5527 3 16.5527H17C17.5304 16.5527 18.0391 16.3581 18.4142 16.0116C18.7893 15.6651 19 15.1951 19 14.7051V6.39062C19 5.9006 18.7893 5.43064 18.4142 5.08413C18.0391 4.73763 17.5304 4.54297 17 4.54297H12M8 4.54297V3.61914C8 3.12911 8.21071 2.65915 8.58579 2.31265C8.96086 1.96615 9.46957 1.77148 10 1.77148C10.5304 1.77148 11.0391 1.96615 11.4142 2.31265C11.7893 2.65915 12 3.12911 12 3.61914V4.54297M8 4.54297C8 5.033 8.21071 5.50296 8.58579 5.84946C8.96086 6.19596 9.46957 6.39062 10 6.39062C10.5304 6.39062 11.0391 6.19596 11.4142 5.84946C11.7893 5.50296 12 5.033 12 4.54297M7 11.9336C7.53043 11.9336 8.03914 11.7389 8.41421 11.3924C8.78929 11.0459 9 10.576 9 10.0859C9 9.59591 8.78929 9.12595 8.41421 8.77945C8.03914 8.43294 7.53043 8.23828 7 8.23828C6.46957 8.23828 5.96086 8.43294 5.58579 8.77945C5.21071 9.12595 5 9.59591 5 10.0859C5 10.576 5.21071 11.0459 5.58579 11.3924C5.96086 11.7389 6.46957 11.9336 7 11.9336ZM7 11.9336C8.306 11.9336 9.417 12.705 9.83 13.7812M7 11.9336C6.37938 11.9334 5.77397 12.111 5.26715 12.4419C4.76032 12.7728 4.37701 13.2407 4.17 13.7812M13 9.16211H16M13 12.8574H15" stroke="#1F2A37" stroke-width="2" stroke-linecap="round" stroke-linejoin="round"/>
</svg>
