<svg width="25" height="24" viewBox="0 0 25 24" fill="none" xmlns="http://www.w3.org/2000/svg">
<path d="M15.375 17H20.375L18.97 15.595C18.7813 15.4063 18.6317 15.1822 18.5296 14.9357C18.4275 14.6891 18.375 14.4249 18.375 14.158V11C18.3752 9.75894 17.9906 8.54834 17.2742 7.53489C16.5579 6.52144 15.545 5.75496 14.375 5.341V5C14.375 4.46957 14.1643 3.96086 13.7892 3.58579C13.4141 3.21071 12.9054 3 12.375 3C11.8446 3 11.3359 3.21071 10.9608 3.58579C10.5857 3.96086 10.375 4.46957 10.375 5V5.341C8.045 6.165 6.375 8.388 6.375 11V14.159C6.375 14.697 6.161 15.214 5.78 15.595L4.375 17H9.375M15.375 17H9.375M15.375 17V18C15.375 18.7956 15.0589 19.5587 14.4963 20.1213C13.9337 20.6839 13.1706 21 12.375 21C11.5794 21 10.8163 20.6839 10.2537 20.1213C9.69107 19.5587 9.375 18.7956 9.375 18V17" stroke="#1F2A37" stroke-width="2" stroke-linecap="round" stroke-linejoin="round"/>
</svg>
