<svg width="123" height="96" viewBox="0 0 123 96" fill="none" xmlns="http://www.w3.org/2000/svg">
<path fill-rule="evenodd" clip-rule="evenodd" d="M85.6451 9.03317C103.775 -10.5468 106.835 7.24317 120.185 10.9832C121.795 11.4332 122.995 11.5432 122.885 12.3032C121.715 19.9732 119.215 21.4232 116.425 21.4932C113.335 21.5832 110.825 21.5232 108.975 22.4032C106.615 23.5232 104.905 24.9732 103.655 26.6732L84.6951 17.0032C85.2951 14.7632 85.6251 12.1232 85.6451 9.03317ZM101.675 30.3732C97.6351 41.1332 103.025 57.1332 84.9651 63.0232C83.8751 72.1832 83.9251 81.3532 85.2051 90.5132L87.3951 90.2832C91.3451 89.8632 91.3151 93.4532 89.4451 95.7632H77.7651C76.9151 84.7832 74.7951 72.7632 75.6751 62.2832C69.5251 63.9332 65.8151 63.4932 59.1351 60.9432C55.8951 59.7132 42.5151 51.7132 38.8851 54.9632C36.8451 56.8032 42.2951 64.1432 28.8351 77.1732L29.0751 90.0632H31.3551C34.8051 90.0632 34.6151 93.5132 33.3651 95.7632H26.7151C22.2951 95.7632 23.2251 96.2332 23.1651 91.5832L23.0551 81.5532L22.3451 75.3332C22.3551 71.6332 25.0151 67.6932 22.4751 58.8732C20.7951 53.0432 20.9351 48.3932 16.5451 47.7532C12.4751 55.9632 8.57512 63.4832 5.15512 72.0932C4.92512 72.6732 4.60512 73.2232 4.32512 73.7932C0.425118 82.7732 -1.20488 76.0232 0.975118 70.6932L2.43512 67.1332C4.30512 59.6032 9.57512 45.4832 14.5451 40.2432C33.2851 20.4732 71.2651 39.1732 82.4551 22.0632L101.675 30.3732Z" fill="#1F2A37"/>
</svg>
