<svg width="42" height="43" viewBox="0 0 42 43" fill="none" xmlns="http://www.w3.org/2000/svg">
<path d="M7.84233 25.7247C8.2343 25.8989 8.71271 25.7584 8.91118 25.4065C9.1104 25.0554 8.9528 24.6246 8.56158 24.4441C8.44562 24.3903 5.70643 23.086 4.98877 19.2317C4.93037 18.915 4.64321 18.6721 4.28555 18.6376C3.91993 18.6011 3.5904 18.786 3.45671 19.0834C1.72074 22.9727 4.9943 27.4426 5.13427 27.6311C5.28783 27.8382 5.54227 27.95 5.7999 27.95C5.95187 27.95 6.10627 27.9106 6.24305 27.8296C6.61027 27.6103 6.71021 27.1659 6.46627 26.8363C6.4463 26.8091 5.0919 24.9536 4.67424 22.7685C5.9904 24.8705 7.73912 25.6781 7.84233 25.7247Z" fill="white"/>
<path d="M11.5568 27.219C11.9897 27.1416 12.2712 26.7639 12.1848 26.3762C12.0977 25.9885 11.6808 25.7363 11.2432 25.8144C9.63766 26.1018 6.59997 27.6676 6.59997 31.5334C6.59997 34.3384 7.25594 36.2842 7.76238 37.3663C6.01113 37.6709 4.99994 38.6578 4.99994 40.1334C4.99994 41.7946 6.68238 43 8.99997 43H9.79994C11.1263 43 11.9423 42.1092 12.0303 42.0081C12.3023 41.6964 12.2407 41.2457 11.892 41.0019C11.544 40.7575 11.0408 40.8141 10.7696 41.1252C10.7656 41.1303 10.3592 41.5667 9.80003 41.5667H8.99997C7.80719 41.5667 6.59997 41.0744 6.59997 40.1334C6.59997 39.7786 6.59997 38.7 8.99997 38.7C9.2936 38.7 9.56238 38.5545 9.70235 38.323C9.84231 38.0915 9.82797 37.8092 9.66794 37.5891C9.65275 37.5684 8.19991 35.5266 8.19991 31.5333C8.2 27.8991 11.424 27.2448 11.5568 27.219Z" fill="white"/>
<path d="M34.2376 37.3663C34.744 36.2841 35.4 34.3384 35.4 31.5333C35.4 27.6676 32.3624 26.1017 30.7568 25.8143C30.3232 25.7376 29.9024 25.9877 29.8152 26.3761C29.7288 26.7639 30.0104 27.1416 30.4432 27.2189C30.5809 27.244 33.8001 27.8633 33.8001 31.5333C33.8001 35.5266 32.3472 37.5683 32.3345 37.5855C32.1712 37.8056 32.1553 38.0886 32.2944 38.3216C32.4337 38.5545 32.7049 38.7 33 38.7C35.4 38.7 35.4 39.7786 35.4 40.1334C35.4 41.0743 34.1928 41.5667 33 41.5667H32.2C31.648 41.5667 31.2416 41.1375 31.2256 41.1203C30.9528 40.8142 30.4544 40.7598 30.108 41.002C29.7592 41.2457 29.6976 41.6965 29.9696 42.0082C30.0577 42.1093 30.8737 43.0001 32.2 43.0001H33C35.3184 43.0001 37 41.7947 37 40.1335C37 38.6578 35.9888 37.6709 34.2376 37.3663Z" fill="white"/>
<path d="M25.9344 37.3212L27.3888 29.5016C27.4616 29.111 27.1672 28.742 26.7313 28.6767C26.2937 28.6122 25.8833 28.8753 25.8113 29.2651L24.3225 37.2667H24.2C23.7576 37.2667 23.4001 37.5878 23.4001 37.9834C23.4001 38.379 23.7576 38.7 24.2 38.7H25C27.4 38.7 27.4 39.7786 27.4 40.1334C27.4 41.0743 26.1928 41.5667 25 41.5667H24.2C22.8768 41.5667 21.8 40.6021 21.8 39.4167V29.3834C21.8 28.9878 21.4425 28.6667 21.0001 28.6667C20.5577 28.6667 20.2001 28.9878 20.2001 29.3834V39.4167C20.2001 40.6021 19.1233 41.5667 17.8001 41.5667H17.0001C15.8073 41.5667 14.6001 41.0744 14.6001 40.1334C14.6001 39.7786 14.6001 38.7 17.0001 38.7H17.8001C18.2425 38.7 18.6001 38.379 18.6001 37.9834C18.6001 37.5878 18.2425 37.2667 17.8001 37.2667H17.6777L16.1889 29.2651C16.1177 28.8753 15.7057 28.6122 15.2689 28.6767C14.8329 28.742 14.5385 29.111 14.6114 29.5016L16.0658 37.3212C14.1282 37.5613 13.0002 38.5746 13.0002 40.1334C13.0002 41.7946 14.6826 43 17.0002 43H17.8002C19.1073 43 20.2697 42.4353 21.0002 41.5646C21.7304 42.4353 22.8928 43 24.1999 43H24.9999C27.3183 43 28.9999 41.7946 28.9999 40.1334C28.9999 38.5746 27.8719 37.5613 25.9344 37.3212Z" fill="white"/>
<path d="M40.9152 6.12968C39.1568 2.97851 34.9208 0 32.2 0C30.6552 0 27.9968 2.14572 26.6616 3.31528C25.1184 2.13068 23.24 1.43336 21 1.43336C18.76 1.43336 16.8815 2.13068 15.3384 3.31537C14.0031 2.14572 11.3448 0 9.79995 0C7.07914 0 2.84314 2.97851 1.08476 6.12968C0.55517 7.07711 0.199951 8.35779 0.199951 9.31672C0.199951 11.2925 1.99433 12.9001 4.19998 12.9001C6.18795 12.9001 7.07755 11.7291 7.79117 10.788C7.87836 10.6741 7.9648 10.5594 8.06558 10.4311L11.2655 6.13111C11.5112 5.80147 11.412 5.35636 11.0439 5.13707C10.6744 4.91636 10.1791 5.00589 9.9343 5.33561L6.74633 9.61982C6.65192 9.7395 6.55995 9.86061 6.46789 9.98171C5.74864 10.9306 5.28786 11.4666 4.19989 11.4666C2.8767 11.4666 1.79989 10.502 1.79989 9.31664C1.79989 8.57203 2.09426 7.525 2.51586 6.77032C4.09189 3.94592 7.90226 1.43328 9.79986 1.43328C10.4823 1.43328 12.5135 2.85656 14.207 4.33149C11.2014 7.46193 9.79986 12.7029 9.79986 17.9166C9.79986 24.5336 13.0446 27.2333 20.9999 27.2333C28.9551 27.2333 32.1999 24.5336 32.1999 17.9166C32.1999 12.7021 30.7984 7.46193 27.7927 4.33149C29.4863 2.85656 31.5168 1.43328 32.1999 1.43328C34.0975 1.43328 37.9079 3.94592 39.4848 6.77032C39.9056 7.525 40.2 8.57203 40.2 9.31664C40.2 10.502 39.1232 11.4666 37.8 11.4666C36.6728 11.4666 36.228 10.9363 35.4776 9.92082L32.0656 5.33561C31.8208 5.00597 31.324 4.91636 30.956 5.13707C30.588 5.35636 30.4888 5.80139 30.7343 6.13111L34.1432 10.712C34.9016 11.7376 35.76 12.9 37.8 12.9C40.0056 12.9 41.8 11.2925 41.8 9.31664C41.8 8.35779 41.4448 7.07711 40.9152 6.12968ZM30.6 17.9166C30.6 23.7374 28.0872 25.8 21 25.8C13.9128 25.8 11.4 23.7374 11.4 17.9166C11.4 10.4253 14.3688 2.86664 21 2.86664C27.6312 2.86664 30.6 10.4253 30.6 17.9166Z" fill="white"/>
<path d="M25.0888 21.1718C24.952 21.4105 24.4176 21.4972 24.2 21.5C23.2632 21.5 22.2951 20.7855 21.9455 19.9642C23.2608 19.6976 24.2 18.8985 24.2 17.9167C24.2 16.7112 22.7944 15.7667 21 15.7667C19.2056 15.7667 17.8 16.7112 17.8 17.9167C17.8 18.8985 18.7392 19.6976 20.0544 19.9642C19.7056 20.7855 18.7376 21.5 17.8055 21.5C17.576 21.4972 17.0527 21.4104 16.9064 21.1639C16.6992 20.8142 16.2152 20.6816 15.8248 20.8672C15.4344 21.0528 15.2856 21.4864 15.4936 21.8361C16.1255 22.9026 17.6304 22.9334 17.8 22.9334C19.0424 22.9334 20.244 22.2977 21 21.3882C21.756 22.2977 22.9576 22.9334 24.2 22.9334C24.3711 22.9334 25.8928 22.9019 26.5112 21.8283C26.7136 21.4764 26.5592 21.0443 26.1664 20.863C25.7735 20.6817 25.292 20.8192 25.0888 21.1718ZM21 18.6334C20.0384 18.6334 19.4 18.202 19.4 17.9167C19.4 17.6315 20.0384 17.2001 21 17.2001C21.9768 17.2001 22.6 17.6244 22.6 17.9167C22.6 18.2091 21.9768 18.6334 21 18.6334Z" fill="white"/>
<path d="M24.6 12.9C25.2616 12.9 25.8 12.4177 25.8 11.825C25.8 11.2323 25.2616 10.75 24.6 10.75C23.9384 10.75 23.4 11.2323 23.4 11.825C23.4 12.4177 23.9384 12.9 24.6 12.9Z" fill="white"/>
<path d="M17.4 12.9C18.0615 12.9 18.6 12.4177 18.6 11.825C18.6 11.2323 18.0615 10.75 17.4 10.75C16.7384 10.75 16.2 11.2323 16.2 11.825C16.2 12.4177 16.7384 12.9 17.4 12.9Z" fill="white"/>
</svg>
