<svg width="123" height="96" viewBox="0 0 123 96" fill="none" xmlns="http://www.w3.org/2000/svg">
<g clip-path="url(#clip0_419_711)">
<path fill-rule="evenodd" clip-rule="evenodd" d="M85.64 9.03C103.77 -10.55 106.83 7.24 120.18 10.98C121.79 11.43 122.99 11.54 122.88 12.3C121.71 19.97 119.21 21.42 116.42 21.49C113.33 21.58 110.82 21.52 108.97 22.4C106.61 23.52 104.9 24.97 103.65 26.67L84.69 17C85.29 14.76 85.62 12.12 85.64 9.03ZM101.67 30.37C97.63 41.13 103.02 57.13 84.96 63.02C83.87 72.18 83.92 81.35 85.2 90.51L87.39 90.28C91.34 89.86 91.31 93.45 89.44 95.76H77.76C76.91 84.78 74.79 72.76 75.67 62.28C69.52 63.93 65.81 63.49 59.13 60.94C55.89 59.71 42.51 51.71 38.88 54.96C36.84 56.8 42.29 64.14 28.83 77.17L29.07 90.06H31.35C34.8 90.06 34.61 93.51 33.36 95.76H26.71C22.29 95.76 23.22 96.23 23.16 91.58L23.05 81.55L22.34 75.33C22.35 71.63 25.01 67.69 22.47 58.87C20.79 53.04 20.93 48.39 16.54 47.75C12.47 55.96 8.56999 63.48 5.14999 72.09C4.91999 72.67 4.59999 73.22 4.31999 73.79C0.419991 82.77 -1.21001 76.02 0.969991 70.69L2.42999 67.13C4.29999 59.6 9.56999 45.48 14.54 40.24C33.28 20.47 71.26 39.17 82.45 22.06L101.67 30.37Z" fill="white"/>
</g>
<defs>
<clipPath id="clip0_419_711">
<rect width="122.88" height="95.78" fill="white"/>
</clipPath>
</defs>
</svg>
