<svg width="24" height="23" viewBox="0 0 24 23" fill="none" xmlns="http://www.w3.org/2000/svg">
<path d="M7 10.624V12.9336M7 10.624V5.08105C7 4.71353 7.15804 4.36106 7.43934 4.10119C7.72064 3.84131 8.10218 3.69531 8.5 3.69531C8.89782 3.69531 9.27936 3.84131 9.56066 4.10119C9.84196 4.36106 10 4.71353 10 5.08105M7 10.624C7 10.2565 6.84196 9.90403 6.56066 9.64416C6.27936 9.38428 5.89782 9.23828 5.5 9.23828C5.10218 9.23828 4.72064 9.38428 4.43934 9.64416C4.15804 9.90403 4 10.2565 4 10.624V12.4717C4 14.3093 4.79018 16.0716 6.1967 17.371C7.60322 18.6704 9.51088 19.4004 11.5 19.4004C13.4891 19.4004 15.3968 18.6704 16.8033 17.371C18.2098 16.0716 19 14.3093 19 12.4717V7.85254C19 7.48502 18.842 7.13255 18.5607 6.87267C18.2794 6.61279 17.8978 6.4668 17.5 6.4668C17.1022 6.4668 16.7206 6.61279 16.4393 6.87267C16.158 7.13255 16 7.48502 16 7.85254M10 5.08105V10.1621M10 5.08105V4.15723C10 3.7897 10.158 3.43724 10.4393 3.17736C10.7206 2.91748 11.1022 2.77148 11.5 2.77148C11.8978 2.77148 12.2794 2.91748 12.5607 3.17736C12.842 3.43724 13 3.7897 13 4.15723V5.08105M16 7.85254V5.08105C16 4.71353 15.842 4.36106 15.5607 4.10119C15.2794 3.84131 14.8978 3.69531 14.5 3.69531C14.1022 3.69531 13.7206 3.84131 13.4393 4.10119C13.158 4.36106 13 4.71353 13 5.08105M16 7.85254V10.1621M13 5.08105V10.1621" stroke="#1F2A37" stroke-width="2" stroke-linecap="round" stroke-linejoin="round"/>
</svg>
