<svg width="20" height="18" viewBox="0 0 20 18" fill="none" xmlns="http://www.w3.org/2000/svg">
<path d="M8 4H3C2.46957 4 1.96086 4.21071 1.58579 4.58579C1.21071 4.96086 1 5.46957 1 6V15C1 15.5304 1.21071 16.0391 1.58579 16.4142C1.96086 16.7893 2.46957 17 3 17H17C17.5304 17 18.0391 16.7893 18.4142 16.4142C18.7893 16.0391 19 15.5304 19 15V6C19 5.46957 18.7893 4.96086 18.4142 4.58579C18.0391 4.21071 17.5304 4 17 4H12M8 4V3C8 2.46957 8.21071 1.96086 8.58579 1.58579C8.96086 1.21071 9.46957 1 10 1C10.5304 1 11.0391 1.21071 11.4142 1.58579C11.7893 1.96086 12 2.46957 12 3V4M8 4C8 4.53043 8.21071 5.03914 8.58579 5.41421C8.96086 5.78929 9.46957 6 10 6C10.5304 6 11.0391 5.78929 11.4142 5.41421C11.7893 5.03914 12 4.53043 12 4M7 12C7.53043 12 8.03914 11.7893 8.41421 11.4142C8.78929 11.0391 9 10.5304 9 10C9 9.46957 8.78929 8.96086 8.41421 8.58579C8.03914 8.21071 7.53043 8 7 8C6.46957 8 5.96086 8.21071 5.58579 8.58579C5.21071 8.96086 5 9.46957 5 10C5 10.5304 5.21071 11.0391 5.58579 11.4142C5.96086 11.7893 6.46957 12 7 12ZM7 12C8.306 12 9.417 12.835 9.83 14M7 12C6.37938 11.9998 5.77397 12.1921 5.26715 12.5502C4.76032 12.9084 4.37701 13.4149 4.17 14M13 9H16M13 13H15" stroke="white" stroke-linecap="round" stroke-linejoin="round"/>
</svg>
