<svg width="25" height="24" viewBox="0 0 25 24" fill="none" xmlns="http://www.w3.org/2000/svg">
<path d="M10.625 6H5.625C5.09457 6 4.58586 6.21071 4.21079 6.58579C3.83571 6.96086 3.625 7.46957 3.625 8V17C3.625 17.5304 3.83571 18.0391 4.21079 18.4142C4.58586 18.7893 5.09457 19 5.625 19H19.625C20.1554 19 20.6641 18.7893 21.0392 18.4142C21.4143 18.0391 21.625 17.5304 21.625 17V8C21.625 7.46957 21.4143 6.96086 21.0392 6.58579C20.6641 6.21071 20.1554 6 19.625 6H14.625M10.625 6V5C10.625 4.46957 10.8357 3.96086 11.2108 3.58579C11.5859 3.21071 12.0946 3 12.625 3C13.1554 3 13.6641 3.21071 14.0392 3.58579C14.4143 3.96086 14.625 4.46957 14.625 5V6M10.625 6C10.625 6.53043 10.8357 7.03914 11.2108 7.41421C11.5859 7.78929 12.0946 8 12.625 8C13.1554 8 13.6641 7.78929 14.0392 7.41421C14.4143 7.03914 14.625 6.53043 14.625 6M9.625 14C10.1554 14 10.6641 13.7893 11.0392 13.4142C11.4143 13.0391 11.625 12.5304 11.625 12C11.625 11.4696 11.4143 10.9609 11.0392 10.5858C10.6641 10.2107 10.1554 10 9.625 10C9.09457 10 8.58586 10.2107 8.21079 10.5858C7.83571 10.9609 7.625 11.4696 7.625 12C7.625 12.5304 7.83571 13.0391 8.21079 13.4142C8.58586 13.7893 9.09457 14 9.625 14ZM9.625 14C10.931 14 12.042 14.835 12.455 16M9.625 14C9.00438 13.9998 8.39897 14.1921 7.89215 14.5502C7.38532 14.9084 7.00201 15.4149 6.795 16M15.625 11H18.625M15.625 15H17.625" stroke="#1F2A37" stroke-linecap="round" stroke-linejoin="round"/>
</svg>
