<svg width="295" height="109" viewBox="0 0 295 109" fill="none" xmlns="http://www.w3.org/2000/svg">
<mask id="mask0_456_205" style="mask-type:luminance" maskUnits="userSpaceOnUse" x="0" y="0" width="120" height="110">
<path d="M0 0H119.406V109.005H0V0Z" fill="white"/>
</mask>
<g mask="url(#mask0_456_205)">
<path d="M117.25 54.3125L64.9896 2.17188C62.099 -0.723958 57.3177 -0.723958 54.4323 2.17188L2.16147 54.3125C-0.723948 57.1979 -0.723948 61.9792 2.16147 64.8646C5.0573 67.7552 9.82293 67.7552 12.7188 64.8646L19.1302 58.4583V100.172C19.1302 105.073 23.1511 109.089 28.0469 109.089H91.2396C96.1458 109.089 100.161 105.073 100.161 100.172V58.5885L106.578 64.9896C108.083 66.4948 109.969 67.1302 111.854 67.1302C113.734 67.1302 115.745 66.3698 117.125 64.9896C120.146 62.0938 120.146 57.3281 117.25 54.3125Z" fill="#8BD2F0"/>
</g>
<mask id="mask1_456_205" style="mask-type:luminance" maskUnits="userSpaceOnUse" x="28" y="45" width="64" height="64">
<path d="M28 45H91.7969V108.802H28V45Z" fill="white"/>
</mask>
<g mask="url(#mask1_456_205)">
<path d="M77.5729 45C74.651 45 73.3594 45.901 71.9479 46.9427C69.6771 46.7187 67.0833 47.6302 65.7656 50.0365C64.7396 51.9167 62.8698 55.3385 62.6354 57.8073C62.6042 57.9635 62.5885 58.125 62.5885 58.2865C62.5885 58.2917 62.5885 58.2969 62.5885 58.3073C62.5885 58.6563 62.6562 58.9948 62.7917 59.3229C62.9271 59.651 63.1198 59.9375 63.3646 60.1875C63.6146 60.4375 63.9062 60.6302 64.2292 60.7656C64.5573 60.8958 64.8958 60.9635 65.25 60.9635C61.4635 73.4844 38.6406 71.6615 38.6406 95.5573V103.182C37.1875 102.797 36.0885 102.115 35.2708 101.208C34.0208 99.8229 33.3177 97.8333 33.3177 95.5573C33.3229 95.1979 33.2604 94.849 33.125 94.5156C32.9896 94.1823 32.7917 93.8906 32.5365 93.6354C32.2812 93.3802 31.9896 93.1875 31.6562 93.0521C31.3229 92.9167 30.974 92.8542 30.6146 92.8594C30.2656 92.8646 29.9271 92.9375 29.6042 93.0781C29.2812 93.2188 28.9948 93.4115 28.75 93.6667C28.5052 93.9167 28.3177 94.2083 28.1875 94.5365C28.0573 94.8646 27.9948 95.2031 28 95.5573C28 98.9271 29.0417 102.255 31.3229 104.781C33.6042 107.302 37.1094 108.859 41.3021 108.859H46.625V106.198C46.625 95.5573 51.9427 92.8958 54.9062 91.375C53.1146 90.1563 51.9427 88.3229 51.9427 86.2448C51.9427 85.2448 52.2292 84.3021 52.7031 83.4479C52.3594 82.3385 51.9427 79.5104 51.9427 76.9323C55.2344 76.9323 57.6875 79.8854 57.6875 79.8854C58.401 79.7135 59.1458 79.5885 59.9271 79.5885C60.7083 79.5885 61.4531 79.7135 62.1667 79.8854C62.1667 79.8854 64.0312 76.9323 67.9115 76.9323C67.9115 79.5104 67.4948 82.3385 67.151 83.4479C67.625 84.3021 67.9115 85.2448 67.9115 86.2448C67.9115 88.474 66.5781 90.4323 64.5573 91.6406C64.9479 92.8177 65.25 96.8073 65.25 98.2188C65.25 100.729 64.599 103.318 64.2292 104.891C64.8594 105.594 65.25 106.51 65.25 107.531V108.859H81.2135C82.6823 108.859 83.875 107.667 83.875 106.198C83.875 104.729 82.6823 103.536 81.2135 103.536H80.1458L76.1562 83.5781C77.6302 81.75 78.5521 79.4583 78.5521 76.9323C78.5521 63.5677 79.276 60.9635 83.1615 60.9635H85.2031C85.9271 60.9635 86.599 60.7812 87.2187 60.4115C87.8437 60.0469 88.3281 59.5469 88.6823 58.9167L88.6927 58.9115L88.7604 58.7813C88.7604 58.776 88.7604 58.7708 88.7656 58.7656L91.5 53.4531C91.6875 53.1875 91.7969 52.8906 91.8385 52.5729C91.8802 52.25 91.8437 51.9375 91.7344 51.6354C91.6198 51.3333 91.4479 51.0729 91.2083 50.8542C90.974 50.6354 90.6979 50.4792 90.3854 50.3958L90.3385 50.3802C90.3333 50.3802 90.3333 50.3802 90.3281 50.3802L83.875 48.4219C83.875 48.4219 82.5677 45 77.5729 45ZM55.9375 84.9115C55.7604 84.9115 55.5885 84.9479 55.4271 85.0156C55.2656 85.0833 55.1198 85.1771 54.9948 85.3021C54.8698 85.4271 54.776 85.5729 54.7083 85.7344C54.6406 85.8958 54.6042 86.0677 54.6042 86.2448C54.6042 86.4219 54.6406 86.5885 54.7083 86.75C54.776 86.9167 54.8698 87.0573 54.9948 87.1823C55.1198 87.3073 55.2656 87.4063 55.4271 87.474C55.5885 87.5417 55.7604 87.5729 55.9375 87.5729C56.1146 87.5729 56.2812 87.5417 56.4427 87.474C56.6094 87.4063 56.75 87.3073 56.875 87.1823C57 87.0573 57.099 86.9167 57.1667 86.75C57.2344 86.5885 57.2656 86.4219 57.2656 86.2448C57.2656 86.0677 57.2344 85.8958 57.1667 85.7344C57.099 85.5729 57 85.4271 56.875 85.3021C56.75 85.1771 56.6094 85.0833 56.4427 85.0156C56.2812 84.9479 56.1146 84.9115 55.9375 84.9115ZM63.9167 84.9115C63.7396 84.9115 63.5729 84.9479 63.4115 85.0156C63.2448 85.0833 63.1042 85.1771 62.9792 85.3021C62.8542 85.4271 62.7552 85.5729 62.6875 85.7344C62.6198 85.8958 62.5885 86.0677 62.5885 86.2448C62.5885 86.4219 62.6198 86.5885 62.6875 86.75C62.7552 86.9167 62.8542 87.0573 62.9792 87.1823C63.1042 87.3073 63.2448 87.4063 63.4115 87.474C63.5729 87.5417 63.7396 87.5729 63.9167 87.5729C64.0937 87.5729 64.2656 87.5417 64.4271 87.474C64.5885 87.4063 64.7344 87.3073 64.8594 87.1823C64.9844 87.0573 65.0781 86.9167 65.1458 86.75C65.2135 86.5885 65.25 86.4219 65.25 86.2448C65.25 86.0677 65.2135 85.8958 65.1458 85.7344C65.0781 85.5729 64.9844 85.4271 64.8594 85.3021C64.7344 85.1771 64.5885 85.0833 64.4271 85.0156C64.2656 84.9479 64.0937 84.9115 63.9167 84.9115Z" fill="white"/>
</g>
<mask id="mask2_456_205" style="mask-type:luminance" maskUnits="userSpaceOnUse" x="60" y="84" width="7" height="7">
<path d="M60.6354 84.5H66.7344V90.599H60.6354V84.5Z" fill="white"/>
</mask>
<g mask="url(#mask2_456_205)">
<mask id="mask3_456_205" style="mask-type:luminance" maskUnits="userSpaceOnUse" x="60" y="84" width="7" height="7">
<path d="M63.6875 84.5C62 84.5 60.6354 85.8698 60.6354 87.5521C60.6354 89.2344 62 90.599 63.6875 90.599C65.3698 90.599 66.7344 89.2344 66.7344 87.5521C66.7344 85.8698 65.3698 84.5 63.6875 84.5Z" fill="white"/>
</mask>
<g mask="url(#mask3_456_205)">
<path d="M60.6354 84.5H66.7344V90.599H60.6354V84.5Z" fill="#8BD2F0"/>
</g>
</g>
<mask id="mask4_456_205" style="mask-type:luminance" maskUnits="userSpaceOnUse" x="53" y="84" width="7" height="7">
<path d="M53.6042 84.5H59.7031V90.599H53.6042V84.5Z" fill="white"/>
</mask>
<g mask="url(#mask4_456_205)">
<mask id="mask5_456_205" style="mask-type:luminance" maskUnits="userSpaceOnUse" x="53" y="84" width="7" height="7">
<path d="M56.6562 84.5C54.9739 84.5 53.6042 85.8698 53.6042 87.5521C53.6042 89.2344 54.9739 90.599 56.6562 90.599C58.3385 90.599 59.7031 89.2344 59.7031 87.5521C59.7031 85.8698 58.3385 84.5 56.6562 84.5Z" fill="white"/>
</mask>
<g mask="url(#mask5_456_205)">
<path d="M53.6042 84.5H59.7031V90.599H53.6042V84.5Z" fill="#8BD2F0"/>
</g>
</g>
<path d="M140.836 60.4359C140.445 60.4359 140.148 60.3214 139.94 60.1026C139.732 59.8682 139.627 59.5557 139.627 59.1651V40.7693C139.627 40.3682 139.732 40.0609 139.94 39.8526C140.159 39.6443 140.471 39.5401 140.877 39.5401H147.815C150.023 39.5401 151.721 40.0922 152.919 41.1859C154.112 42.2693 154.711 43.8005 154.711 45.7693C154.711 47.7276 154.112 49.2589 152.919 50.3526C151.721 51.4359 150.023 51.9776 147.815 51.9776H142.044V59.1651C142.044 59.5557 141.945 59.8682 141.752 60.1026C141.555 60.3214 141.252 60.4359 140.836 60.4359ZM142.044 49.9568H147.523C149.107 49.9568 150.299 49.6026 151.107 48.8943C151.924 48.1755 152.336 47.1339 152.336 45.7693C152.336 44.3839 151.924 43.3318 151.107 42.6234C150.299 41.9047 149.107 41.5401 147.523 41.5401H142.044V49.9568Z" fill="black"/>
<path d="M159.525 60.2276C159.093 60.2276 158.76 60.1182 158.525 59.8943C158.302 59.6755 158.192 59.3474 158.192 58.9151V40.8734C158.192 40.4463 158.302 40.1182 158.525 39.8943C158.76 39.6599 159.093 39.5401 159.525 39.5401H170.442C170.775 39.5401 171.025 39.6339 171.192 39.8109C171.369 39.9932 171.463 40.238 171.463 40.5401C171.463 40.8734 171.369 41.1339 171.192 41.3109C171.025 41.4932 170.775 41.5818 170.442 41.5818H160.546V48.7276H169.817C170.15 48.7276 170.4 48.8109 170.567 48.9776C170.744 49.1443 170.838 49.3943 170.838 49.7276C170.838 50.0609 170.744 50.3213 170.567 50.4984C170.4 50.6651 170.15 50.7484 169.817 50.7484H160.546V58.2068H170.442C170.775 58.2068 171.025 58.3005 171.192 58.4776C171.369 58.6443 171.463 58.8891 171.463 59.2068C171.463 59.5401 171.369 59.8005 171.192 59.9776C171.025 60.1443 170.775 60.2276 170.442 60.2276H159.525Z" fill="black"/>
<path d="M176.54 60.2276C176.134 60.2276 175.822 60.1182 175.603 59.8943C175.395 59.6755 175.29 59.363 175.29 58.9568V40.6651C175.29 40.2484 175.395 39.9359 175.603 39.7276C175.811 39.5089 176.108 39.3943 176.499 39.3943C176.884 39.3943 177.186 39.5089 177.395 39.7276C177.603 39.9359 177.707 40.2484 177.707 40.6651V58.1234H187.332C187.676 58.1234 187.947 58.2172 188.145 58.3943C188.337 58.5766 188.436 58.8318 188.436 59.1651C188.436 59.4984 188.337 59.7641 188.145 59.9568C187.947 60.1391 187.676 60.2276 187.332 60.2276H176.54Z" fill="black"/>
<path d="M199.903 60.4984C197.986 60.4984 196.32 60.0609 194.903 59.1859C193.486 58.3109 192.387 57.0818 191.611 55.4984C190.846 53.9151 190.466 52.0401 190.466 49.8734C190.466 48.238 190.679 46.7641 191.111 45.4568C191.554 44.1547 192.184 43.0505 193.007 42.1443C193.841 41.2276 194.83 40.5297 195.986 40.0401C197.153 39.5401 198.455 39.2901 199.903 39.2901C201.861 39.2901 203.549 39.7224 204.966 40.5818C206.382 41.4463 207.471 42.6599 208.236 44.2276C209.012 45.8005 209.403 47.6755 209.403 49.8526C209.403 51.4932 209.179 52.9724 208.736 54.2901C208.288 55.5974 207.653 56.7068 206.82 57.6234C205.997 58.5401 205.007 59.2484 203.841 59.7484C202.684 60.2484 201.372 60.4984 199.903 60.4984ZM199.903 58.3526C201.387 58.3526 202.643 58.0193 203.674 57.3526C204.7 56.6859 205.486 55.7224 206.028 54.4568C206.58 53.1807 206.861 51.6547 206.861 49.8734C206.861 47.1963 206.257 45.1182 205.049 43.6443C203.851 42.1599 202.137 41.4151 199.903 41.4151C198.455 41.4151 197.221 41.7484 196.195 42.4151C195.163 43.0818 194.372 44.0505 193.82 45.3109C193.278 46.5766 193.007 48.0974 193.007 49.8734C193.007 52.5297 193.611 54.6026 194.82 56.1026C196.038 57.6026 197.736 58.3526 199.903 58.3526Z" fill="black"/>
<path d="M220.419 60.4984C219.486 60.4984 218.585 60.4151 217.71 60.2484C216.835 60.0974 216.012 59.8734 215.252 59.5818C214.502 59.2901 213.825 58.9255 213.231 58.4776C212.991 58.3005 212.825 58.0974 212.731 57.8734C212.648 57.6391 212.627 57.4099 212.669 57.1859C212.721 56.9672 212.82 56.7797 212.96 56.6234C213.111 56.4724 213.294 56.3891 213.502 56.3734C213.721 56.3474 213.96 56.4099 214.21 56.5609C215.096 57.1859 216.033 57.6443 217.023 57.9359C218.023 58.2172 219.153 58.3526 220.419 58.3526C222.169 58.3526 223.465 58.0297 224.314 57.3734C225.174 56.7224 225.606 55.8526 225.606 54.7693C225.606 53.8943 225.294 53.2068 224.669 52.7068C224.054 52.2068 223.028 51.8109 221.585 51.5193L218.523 50.8943C216.689 50.5089 215.314 49.8682 214.398 48.9776C213.491 48.0922 213.044 46.9047 213.044 45.4151C213.044 44.4984 213.231 43.6651 213.606 42.9151C213.981 42.1547 214.491 41.5089 215.148 40.9776C215.814 40.4359 216.606 40.0193 217.523 39.7276C218.45 39.4359 219.471 39.2901 220.585 39.2901C221.82 39.2901 222.965 39.4672 224.023 39.8109C225.09 40.1443 226.054 40.6547 226.919 41.3318C227.137 41.5141 227.283 41.7172 227.356 41.9359C227.439 42.1599 227.445 42.3734 227.377 42.5818C227.32 42.7901 227.215 42.9672 227.064 43.1026C226.924 43.2432 226.741 43.3213 226.523 43.3318C226.299 43.3474 226.049 43.2693 225.773 43.1026C224.991 42.5089 224.179 42.0766 223.335 41.8109C222.502 41.5505 221.575 41.4151 220.564 41.4151C219.523 41.4151 218.627 41.5766 217.877 41.8943C217.127 42.2172 216.533 42.6755 216.106 43.2693C215.689 43.8526 215.481 44.5401 215.481 45.3318C215.481 46.2641 215.762 47.0089 216.335 47.5609C216.919 48.1026 217.861 48.4984 219.169 48.7484L222.231 49.3943C224.2 49.8109 225.658 50.4359 226.606 51.2693C227.564 52.1026 228.044 53.2276 228.044 54.6443C228.044 55.5089 227.861 56.3057 227.502 57.0401C227.153 57.7641 226.648 58.3839 225.981 58.8943C225.314 59.4099 224.507 59.8057 223.564 60.0818C222.632 60.3578 221.585 60.4984 220.419 60.4984Z" fill="black"/>
<path d="M148.586 101.498C146.555 101.498 144.815 101.071 143.357 100.207C141.909 99.3474 140.799 98.1234 140.023 96.5401C139.258 94.9568 138.877 93.0713 138.877 90.8734C138.877 89.238 139.091 87.7641 139.523 86.4568C139.966 85.1547 140.607 84.0505 141.44 83.1443C142.273 82.2276 143.294 81.5297 144.502 81.0401C145.721 80.5401 147.086 80.2901 148.586 80.2901C149.794 80.2901 150.945 80.4672 152.044 80.8109C153.138 81.1443 154.091 81.6443 154.898 82.3109C155.148 82.5089 155.315 82.7276 155.398 82.9776C155.492 83.2172 155.508 83.4516 155.44 83.6859C155.367 83.9099 155.252 84.0974 155.086 84.2484C154.919 84.3891 154.716 84.4568 154.482 84.4568C154.242 84.4568 153.982 84.363 153.69 84.1651C152.982 83.5974 152.2 83.1755 151.357 82.8943C150.523 82.6182 149.617 82.4776 148.648 82.4776C147.107 82.4776 145.794 82.8109 144.711 83.4776C143.638 84.1339 142.825 85.0818 142.273 86.3318C141.732 87.5818 141.461 89.0974 141.461 90.8734C141.461 92.6547 141.732 94.1755 142.273 95.4359C142.825 96.7016 143.638 97.6599 144.711 98.3109C145.794 98.9672 147.107 99.2901 148.648 99.2901C149.607 99.2901 150.513 99.1547 151.377 98.8734C152.237 98.5818 153.028 98.1547 153.752 97.5818C154.044 97.3891 154.305 97.3005 154.544 97.3109C154.778 97.3266 154.971 97.4047 155.127 97.5401C155.278 97.6651 155.388 97.8422 155.461 98.0609C155.528 98.2693 155.528 98.4932 155.461 98.7276C155.388 98.9672 155.237 99.1755 155.002 99.3526C154.18 100.061 153.216 100.597 152.107 100.957C151.008 101.316 149.836 101.498 148.586 101.498Z" fill="black"/>
<path d="M158.928 101.436C158.62 101.436 158.37 101.363 158.178 101.228C157.995 101.077 157.891 100.884 157.865 100.644C157.834 100.394 157.891 100.113 158.032 99.7901L166.094 81.4359C166.272 81.0349 166.48 80.7589 166.719 80.6026C166.969 80.4359 167.24 80.3526 167.532 80.3526C167.824 80.3526 168.084 80.4359 168.324 80.6026C168.574 80.7589 168.782 81.0349 168.949 81.4359L177.032 99.7901C177.183 100.113 177.245 100.394 177.219 100.644C177.188 100.894 177.084 101.092 176.907 101.228C176.74 101.363 176.495 101.436 176.178 101.436C175.829 101.436 175.542 101.342 175.324 101.165C175.115 100.972 174.938 100.702 174.803 100.353L172.636 95.3318L173.803 95.9568H161.199L162.407 95.3318L160.261 100.353C160.079 100.728 159.891 101.009 159.699 101.186C159.501 101.353 159.245 101.436 158.928 101.436ZM167.511 83.3734L162.782 94.4776L162.074 93.9151H172.928L172.282 94.4776L167.553 83.3734H167.511Z" fill="black"/>
<path d="M181.933 101.436C181.568 101.436 181.292 101.332 181.1 101.123C180.902 100.915 180.808 100.634 180.808 100.269V81.5193C180.808 81.1339 180.902 80.8422 181.1 80.6443C181.292 80.4516 181.568 80.3526 181.933 80.3526C182.235 80.3526 182.48 80.4151 182.662 80.5401C182.855 80.6651 183.027 80.8734 183.183 81.1651L191.225 96.2901H190.35L198.35 81.1651C198.516 80.8734 198.683 80.6651 198.85 80.5401C199.027 80.4151 199.287 80.3526 199.62 80.3526C199.954 80.3526 200.214 80.4516 200.412 80.6443C200.605 80.8422 200.704 81.1339 200.704 81.5193V100.269C200.704 100.634 200.605 100.915 200.412 101.123C200.23 101.332 199.954 101.436 199.579 101.436C199.23 101.436 198.959 101.332 198.766 101.123C198.568 100.915 198.475 100.634 198.475 100.269V83.7693H199.183L191.85 97.5401C191.709 97.7901 191.563 97.9724 191.412 98.0818C191.271 98.1807 191.063 98.2276 190.787 98.2276C190.506 98.2276 190.292 98.1755 190.141 98.0609C189.985 97.9359 189.85 97.7641 189.725 97.5401L182.308 83.7484H183.016V100.269C183.016 100.634 182.917 100.915 182.725 101.123C182.542 101.332 182.277 101.436 181.933 101.436Z" fill="black"/>
<path d="M207.029 101.436C206.639 101.436 206.342 101.321 206.133 101.103C205.925 100.868 205.821 100.556 205.821 100.165V81.6026C205.821 81.1859 205.925 80.8734 206.133 80.6651C206.342 80.4568 206.639 80.3526 207.029 80.3526C207.415 80.3526 207.717 80.4568 207.925 80.6651C208.133 80.8734 208.238 81.1859 208.238 81.6026V100.165C208.238 100.556 208.139 100.868 207.946 101.103C207.748 101.321 207.446 101.436 207.029 101.436Z" fill="black"/>
<path d="M214.504 101.436C214.14 101.436 213.858 101.332 213.65 101.123C213.452 100.915 213.358 100.618 213.358 100.228V81.5818C213.358 81.1807 213.452 80.8734 213.65 80.6651C213.858 80.4568 214.114 80.3526 214.421 80.3526C214.739 80.3526 214.968 80.4099 215.108 80.5193C215.259 80.6182 215.431 80.8057 215.629 81.0818L228.421 98.1234H227.712V81.5193C227.712 81.1443 227.806 80.863 228.004 80.6651C228.197 80.4568 228.483 80.3526 228.858 80.3526C229.202 80.3526 229.468 80.4568 229.65 80.6651C229.843 80.863 229.942 81.1443 229.942 81.5193V100.269C229.942 100.634 229.858 100.915 229.692 101.123C229.525 101.332 229.285 101.436 228.983 101.436C228.676 101.436 228.431 101.373 228.254 101.248C228.087 101.139 227.905 100.957 227.712 100.707L214.962 83.6651H215.629V100.228C215.629 100.618 215.53 100.915 215.337 101.123C215.14 101.332 214.864 101.436 214.504 101.436Z" fill="black"/>
<path d="M236.269 101.436C235.879 101.436 235.582 101.321 235.374 101.103C235.165 100.868 235.061 100.556 235.061 100.165V81.6026C235.061 81.1859 235.165 80.8734 235.374 80.6651C235.582 80.4568 235.879 80.3526 236.269 80.3526C236.655 80.3526 236.957 80.4568 237.165 80.6651C237.374 80.8734 237.478 81.1859 237.478 81.6026V89.7068H249.894V81.6026C249.894 81.1859 249.988 80.8734 250.186 80.6651C250.394 80.4568 250.691 80.3526 251.082 80.3526C251.467 80.3526 251.769 80.4568 251.978 80.6651C252.186 80.8734 252.29 81.1859 252.29 81.6026V100.165C252.29 100.556 252.186 100.868 251.978 101.103C251.769 101.321 251.467 101.436 251.082 101.436C250.691 101.436 250.394 101.321 250.186 101.103C249.988 100.868 249.894 100.556 249.894 100.165V91.7901H237.478V100.165C237.478 100.556 237.379 100.868 237.186 101.103C236.988 101.321 236.686 101.436 236.269 101.436Z" fill="black"/>
<path d="M266.067 101.498C264.151 101.498 262.484 101.061 261.067 100.186C259.651 99.3109 258.552 98.0818 257.776 96.4984C257.01 94.9151 256.63 93.0401 256.63 90.8734C256.63 89.238 256.843 87.7641 257.276 86.4568C257.718 85.1547 258.349 84.0505 259.171 83.1443C260.005 82.2276 260.994 81.5297 262.151 81.0401C263.317 80.5401 264.619 80.2901 266.067 80.2901C268.026 80.2901 269.713 80.7224 271.13 81.5818C272.546 82.4463 273.635 83.6599 274.401 85.2276C275.177 86.8005 275.567 88.6755 275.567 90.8526C275.567 92.4932 275.343 93.9724 274.901 95.2901C274.453 96.5974 273.817 97.7068 272.984 98.6234C272.161 99.5401 271.171 100.248 270.005 100.748C268.849 101.248 267.536 101.498 266.067 101.498ZM266.067 99.3526C267.552 99.3526 268.807 99.0193 269.838 98.3526C270.864 97.6859 271.651 96.7224 272.192 95.4568C272.744 94.1807 273.026 92.6547 273.026 90.8734C273.026 88.1963 272.421 86.1182 271.213 84.6443C270.015 83.1599 268.302 82.4151 266.067 82.4151C264.619 82.4151 263.385 82.7484 262.359 83.4151C261.328 84.0818 260.536 85.0505 259.984 86.3109C259.442 87.5766 259.171 89.0974 259.171 90.8734C259.171 93.5297 259.776 95.6026 260.984 97.1026C262.203 98.6026 263.901 99.3526 266.067 99.3526Z" fill="black"/>
<path d="M286.583 101.498C285.65 101.498 284.749 101.415 283.874 101.248C282.999 101.097 282.177 100.873 281.416 100.582C280.666 100.29 279.989 99.9255 279.395 99.4776C279.156 99.3005 278.989 99.0974 278.895 98.8734C278.812 98.6391 278.791 98.4099 278.833 98.1859C278.885 97.9672 278.984 97.7797 279.124 97.6234C279.275 97.4724 279.458 97.3891 279.666 97.3734C279.885 97.3474 280.124 97.4099 280.374 97.5609C281.26 98.1859 282.197 98.6443 283.187 98.9359C284.187 99.2172 285.317 99.3526 286.583 99.3526C288.333 99.3526 289.63 99.0297 290.479 98.3734C291.338 97.7224 291.77 96.8526 291.77 95.7693C291.77 94.8943 291.458 94.2068 290.833 93.7068C290.218 93.2068 289.192 92.8109 287.749 92.5193L284.687 91.8943C282.854 91.5089 281.479 90.8682 280.562 89.9776C279.656 89.0922 279.208 87.9047 279.208 86.4151C279.208 85.4984 279.395 84.6651 279.77 83.9151C280.145 83.1547 280.656 82.5089 281.312 81.9776C281.979 81.4359 282.77 81.0193 283.687 80.7276C284.614 80.4359 285.635 80.2901 286.749 80.2901C287.984 80.2901 289.13 80.4672 290.187 80.8109C291.255 81.1443 292.218 81.6547 293.083 82.3318C293.302 82.5141 293.447 82.7172 293.52 82.9359C293.604 83.1599 293.609 83.3734 293.541 83.5818C293.484 83.7901 293.38 83.9672 293.229 84.1026C293.088 84.2432 292.906 84.3213 292.687 84.3318C292.463 84.3474 292.213 84.2693 291.937 84.1026C291.156 83.5089 290.343 83.0766 289.499 82.8109C288.666 82.5505 287.739 82.4151 286.729 82.4151C285.687 82.4151 284.791 82.5766 284.041 82.8943C283.291 83.2172 282.697 83.6755 282.27 84.2693C281.854 84.8526 281.645 85.5401 281.645 86.3318C281.645 87.2641 281.927 88.0089 282.499 88.5609C283.083 89.1026 284.025 89.4984 285.333 89.7484L288.395 90.3943C290.364 90.8109 291.822 91.4359 292.77 92.2693C293.729 93.1026 294.208 94.2276 294.208 95.6443C294.208 96.5089 294.025 97.3057 293.666 98.0401C293.317 98.7641 292.812 99.3839 292.145 99.8943C291.479 100.41 290.671 100.806 289.729 101.082C288.796 101.358 287.749 101.498 286.583 101.498Z" fill="black"/>
</svg>
